<?xml version="1.0" encoding="UTF-8" standalone="no"?>
<!-- Created with Inkscape (http://www.inkscape.org/) -->

<svg
   version="1.1"
   id="svg9"
   width="78"
   height="100"
   viewBox="0 0 78 100"
   xmlns="http://www.w3.org/2000/svg"
   xmlns:svg="http://www.w3.org/2000/svg">
  <defs
     id="defs13" />
  <g
     id="layer1"
     style="opacity:1">
    <g
       id="g24"
       transform="matrix(0.64794959,0,0,0.64794959,6.68649,-0.0503275)">
      <path
         id="path306"
         style="display:inline;fill:#b4d333;fill-opacity:1;stroke:#000000;stroke-opacity:0"
         d="M 49.498199,1.8634484 C 26.904582,1.9265564 7.4220502,17.757033 2.7364802,39.859543 c 2.32031,-1.466973 5.02543,-2.289704 7.8339808,-2.328125 0.49211,-0.0065 0.98423,0.01105 1.47461,0.05273 2.96503,0.250597 5.789149,1.374809 8.115237,3.230468 0.05831,0.04838 0.116258,0.09723 0.173828,0.146485 4.105795,3.169394 8.322104,6.637858 12.433984,9.951052 1.332467,1.339711 2.951455,2.134534 4.667576,2.168084 1.585532,-0.01871 3.232486,-0.644825 4.464843,-1.855468 3.152918,-2.910147 6.01125,-6.323913 8.742187,-8.912106 0.05166,-0.05573 0.10375,-0.111075 0.15625,-0.166015 2.053905,-2.011161 4.640995,-3.391801 7.455078,-3.978516 1.308539,-0.408792 2.666813,-0.636814 4.037109,-0.677734 0.492103,-0.0065 0.984232,0.01104 1.47461,0.05273 2.965023,0.250597 5.789146,1.374809 8.115234,3.230469 0.05831,0.04839 0.116258,0.09721 0.173828,0.146484 3.984058,3.325207 8.075066,6.960197 12.0625,10.431641 1.642294,1.132463 3.322942,1.65395 5.039063,1.6875 1.585532,-0.0187 3.119206,-0.687795 4.351562,-1.898438 2.472351,-2.104301 3.933637,-3.416322 3.660011,-6.384218 C 94.62089,20.515127 74.144573,1.86494 49.498199,1.8634484 Z" />
      <path
         id="path306-4"
         style="display:inline;opacity:1;fill:#992e6a;fill-opacity:1;stroke:#000000;stroke-opacity:0"
         d="m 50.203418,97.8118 c 22.593617,-0.06311 42.076157,-15.893586 46.761717,-37.996095 -2.32031,1.46697 -5.02542,2.2897 -7.83398,2.32812 -0.4921,0.007 -0.98423,-0.011 -1.47461,-0.0527 -2.965025,-0.25059 -5.789148,-1.3748 -8.115236,-3.23046 -0.05831,-0.0484 -0.116258,-0.0972 -0.173828,-0.14649 -4.10583,-3.169465 -8.322088,-6.637866 -12.433984,-9.951073 -1.332467,-1.33971 -2.951455,-2.13453 -4.667576,-2.16808 -1.585532,0.0187 -3.232486,0.64482 -4.464843,1.85546 -3.152918,2.910153 -6.01125,6.323923 -8.742187,8.912113 -0.05166,0.0557 -0.10375,0.11107 -0.15625,0.16601 -2.053905,2.01117 -4.640995,3.39181 -7.455078,3.97852 -1.308539,0.40879 -2.666813,0.63681 -4.037109,0.67773 -0.492103,0.007 -0.984232,-0.011 -1.47461,-0.0527 -2.965023,-0.25059 -5.789146,-1.3748 -8.115234,-3.23046 -0.05831,-0.0484 -0.116258,-0.0972 -0.173828,-0.14649 -3.984058,-3.32521 -8.075066,-6.9602 -12.062507,-10.431643 -1.64229,-1.13246 -3.32294,-1.65395 -5.03906,-1.6875 -1.58553,0.0187 -3.11921,0.6878 -4.35156,1.89844 -3.1645,2.425521 -3.96653,4.211157 -3.49459,7.766464 3.16505,23.564495 23.328527,41.509364 47.504353,41.510834 z" />
    </g>
    <g
       aria-label="S"
       transform="scale(0.92715432,1.0785691)"
       id="text5661"
       style="font-size:18.7182px;line-height:1.25;font-family:HarlequinFLF;-inkscape-font-specification:HarlequinFLF;text-align:center;text-anchor:middle;opacity:1;fill:#992e6a;stroke-width:0.467951">
      <path
         d="m 73.910457,87.301607 q -0.05615,0 -0.168464,0.149746 -0.09359,0.149746 -0.2059,0.393082 -0.09359,0.243337 -0.187182,0.561546 -0.07487,0.299491 -0.07487,0.636419 0,0.711292 0.262055,1.310274 0.280773,0.598982 0.823601,1.029501 0.561546,0.430519 1.385147,0.673855 0.823601,0.262055 1.927975,0.262055 1.272837,0 2.227465,-0.280773 0.973347,-0.299491 1.609766,-0.823601 0.655137,-0.524109 0.973346,-1.235401 0.336928,-0.711292 0.336928,-1.534892 0,-0.748728 -0.243337,-1.422584 -0.243336,-0.692573 -0.711291,-1.254119 -0.467955,-0.580264 -1.179247,-0.973347 -0.692574,-0.4118 -1.609765,-0.598982 -1.272838,-0.262055 -1.946693,-0.673855 -0.673855,-0.411801 -0.673855,-1.123092 0,-0.898474 0.580264,-1.328993 0.598982,-0.430518 2.115156,-0.430518 0.374364,0 0.636419,0.07487 0.262055,0.07487 0.449237,0.2059 0.187182,0.112309 0.299491,0.262055 0.112309,0.131027 0.205901,0.262054 0.09359,0.131028 0.149745,0.224619 0.07487,0.07487 0.2059,0.07487 0.224619,0 0.393083,-0.131028 0.168463,-0.131027 0.280773,-0.336927 0.112309,-0.205901 0.168463,-0.430519 0.05615,-0.243337 0.05615,-0.449237 0,-0.318209 -0.149746,-0.655137 -0.131027,-0.355646 -0.467955,-0.636419 -0.318209,-0.299491 -0.879755,-0.486673 -0.542828,-0.187182 -1.347711,-0.187182 -1.179246,0 -2.133874,0.262055 -0.954629,0.262055 -1.609766,0.786164 -0.655137,0.505392 -1.010783,1.272838 -0.355645,0.748728 -0.355645,1.722075 0,0.8236 0.243336,1.460019 0.243337,0.617701 0.748728,1.104374 0.52411,0.486673 1.328993,0.861037 0.8236,0.355646 1.965411,0.636419 0.842319,0.2059 1.291555,0.655137 0.467955,0.449237 0.467955,1.048219 0,0.711292 -0.636418,1.179247 -0.617701,0.449237 -1.815666,0.449237 -0.973346,0 -1.647201,-0.2059 -0.655137,-0.205901 -1.085656,-0.542828 -0.430519,-0.355646 -0.655137,-0.804883 -0.224619,-0.449237 -0.280773,-0.93591 -0.01872,-0.07487 -0.05616,-0.07487 z"
         id="path423" />
    </g>
    <g
       aria-label="R"
       transform="scale(0.96354838,1.0378306)"
       id="text5665"
       style="font-size:19.4529px;line-height:1.25;font-family:HarlequinFLF;-inkscape-font-specification:HarlequinFLF;text-align:center;text-anchor:middle;opacity:1;fill:#992e6a;stroke-width:0.48632">
      <path
         d="m 60.377426,86.215439 q 0,-0.564134 0.07781,-1.128269 0.07781,-0.583587 0.175076,-0.914286 0.07781,-0.213982 0.291793,-0.311246 0.233435,-0.09726 0.894834,-0.09726 0.992098,0 1.497873,0.3307 0.525228,0.311246 0.525228,0.836474 0,0.505776 -0.40851,1.011551 -0.389058,0.486323 -0.894834,0.894833 -0.505775,0.389058 -0.992098,0.641946 -0.466869,0.252888 -0.60304,0.252888 -0.350152,0 -0.427963,-0.252888 -0.03891,-0.213982 -0.09727,-0.544681 -0.03891,-0.330699 -0.03891,-0.719757 z m 4.201827,1.94529 q 0,-0.155624 0.213982,-0.311247 0.933739,-0.680851 1.361703,-1.536779 0.427963,-0.87538 0.427963,-1.672949 0,-0.583587 -0.213982,-1.108816 -0.194529,-0.525228 -0.583587,-0.914286 -0.369605,-0.389058 -0.933739,-0.60304 -0.564134,-0.233435 -1.283891,-0.233435 h -4.454714 q -0.369605,0 -0.564134,0.213982 -0.175076,0.213982 -0.233435,0.486323 -0.272341,1.322797 -0.389058,2.937388 -0.116718,1.595138 -0.116718,3.248634 0,1.828573 0.136171,3.540428 0.13617,1.692402 0.350152,2.917935 0.03891,0.233435 0.175076,0.389058 0.155623,0.155623 0.447417,0.155623 h 1.789667 q 0.505775,0 0.505775,-0.427964 0,-0.07781 -0.01945,-0.194529 -0.01945,-0.13617 -0.07781,-0.350152 -0.0389,-0.13617 -0.13617,-0.525228 -0.07781,-0.408511 -0.175076,-0.914287 -0.09726,-0.505775 -0.175076,-1.031003 -0.07781,-0.544681 -0.07781,-0.972645 0,-0.252888 0.01945,-0.408511 0.01945,-0.155623 0.05836,-0.252888 0.05836,-0.09726 0.155623,-0.175076 0.09727,-0.07781 0.272341,-0.175076 0.389058,-0.175076 0.836474,-0.369605 0.447417,-0.213982 0.778116,-0.369605 0.05836,-0.03891 0.175077,-0.03891 0.13617,0 0.233434,0.09726 0.486323,0.427964 0.797569,1.089363 0.3307,0.641946 0.525229,1.381156 0.213981,0.73921 0.291793,1.536779 0.09726,0.778116 0.13617,1.47842 0.01945,0.622493 0.447417,0.622493 H 67.2443 q 0.486322,0 0.486322,-0.505775 0,-0.136171 -0.01945,-0.213982 -0.01945,-0.09727 -0.05836,-0.233435 -0.175076,-0.894833 -0.389058,-1.770214 -0.194529,-0.87538 -0.505776,-1.692402 -0.311246,-0.817022 -0.797568,-1.517326 -0.486323,-0.719758 -1.20608,-1.303345 -0.175076,-0.13617 -0.175076,-0.27234 z"
         id="path426" />
    </g>
    <g
       aria-label="O"
       transform="scale(0.92715432,1.0785691)"
       id="text5669"
       style="font-size:18.7182px;line-height:1.25;font-family:HarlequinFLF;-inkscape-font-specification:HarlequinFLF;text-align:center;text-anchor:middle;opacity:1;fill:#992e6a;stroke-width:0.467951">
      <path
         d="m 48.062886,87.039552 q 0,-0.954628 0.299491,-2.021565 0.299492,-1.085656 0.748728,-1.984129 0.467955,-0.898474 0.992065,-1.497457 0.542828,-0.598982 1.010783,-0.598982 0.449237,0 0.992065,0.598982 0.561546,0.580265 1.029501,1.478738 0.486673,0.879756 0.804882,1.946693 0.31821,1.048219 0.31821,2.002848 0,0.636419 -0.149746,1.160528 -0.131027,0.505392 -0.486673,0.879756 -0.355646,0.355645 -0.954628,0.561546 -0.598983,0.2059 -1.497456,0.2059 -0.823601,0 -1.403866,-0.131028 -0.580264,-0.131027 -0.973346,-0.430518 -0.374364,-0.31821 -0.561546,-0.842319 -0.168464,-0.52411 -0.168464,-1.328993 z m 8.703964,0.205901 q 0,-0.954629 -0.205901,-1.927975 -0.187182,-0.992065 -0.580264,-1.946693 -0.374364,-0.954628 -0.917192,-1.834384 -0.542828,-0.879755 -1.216683,-1.609765 -0.655137,-0.711291 -1.328992,-1.085655 -0.655137,-0.393083 -1.366429,-0.393083 -0.655137,0 -1.34771,0.355646 -0.673855,0.336928 -1.385147,1.123092 -0.655137,0.711292 -1.179247,1.628484 -0.505391,0.898473 -0.879755,1.890538 -0.355646,0.973346 -0.542828,1.965411 -0.187182,0.992065 -0.187182,1.890538 0,1.272838 0.280773,2.227466 0.299491,0.93591 0.954628,1.553611 0.655137,0.6177 1.703357,0.93591 1.066937,0.299491 2.583111,0.299491 1.740793,0 2.826449,-0.393082 1.104373,-0.393082 1.722074,-1.085656 0.617701,-0.692573 0.842319,-1.609765 0.224619,-0.917192 0.224619,-1.984129 z"
         id="path429" />
    </g>
    <g
       aria-label="T"
       transform="scale(0.92715432,1.0785691)"
       id="text5673"
       style="font-size:18.7182px;line-height:1.25;font-family:HarlequinFLF;-inkscape-font-specification:HarlequinFLF;text-align:center;text-anchor:middle;opacity:1;fill:#992e6a;stroke-width:0.467951">
      <path
         d="m 39.565954,91.719103 q 0,-0.05616 0,-0.09359 0,-0.03744 -0.03744,-0.131028 -0.2059,-0.655137 -0.411801,-1.441301 -0.2059,-0.786165 -0.393082,-1.647202 -0.168464,-0.879755 -0.280773,-1.796947 -0.112309,-0.93591 -0.112309,-1.87182 0,-0.917192 0.131027,-1.815666 0.131028,-0.917191 0.449237,-1.778229 0.131028,-0.393082 0.505392,-0.393082 0.6177,0 1.235401,0.280773 0.617701,0.262055 0.992065,0.636419 0.09359,0.09359 0.2059,0.09359 0.224618,0 0.393082,-0.262055 0.112309,-0.168464 0.224618,-0.430519 0.11231,-0.262054 0.205901,-0.524109 0.09359,-0.262055 0.149745,-0.486673 0.05615,-0.224619 0.05615,-0.355646 0,-0.561546 -0.374364,-0.673855 -1.14181,-0.31821 -2.302339,-0.449237 -1.14181,-0.149746 -2.246184,-0.149746 -1.235401,0 -2.358493,0.149746 -1.104374,0.149745 -2.002848,0.393082 -0.2059,0.05616 -0.355646,0.243337 -0.131027,0.187182 -0.2059,0.355645 -0.112309,0.262055 -0.224618,0.580265 -0.09359,0.318209 -0.168464,0.636418 -0.07487,0.299492 -0.131027,0.580265 -0.05616,0.280773 -0.05616,0.505391 0,0.280773 0.224618,0.280773 0.131028,0 0.243337,-0.09359 0.355646,-0.280773 0.748728,-0.505391 0.4118,-0.243337 0.804883,-0.411801 0.393082,-0.187182 0.748728,-0.280773 0.374364,-0.112309 0.655137,-0.112309 0.467955,0 0.467955,0.262055 0,0.131027 -0.01872,0.224618 -0.01872,0.09359 -0.05615,0.2059 -0.262055,0.973347 -0.430519,2.302339 -0.149745,1.310274 -0.149745,2.732857 0,1.328993 0.131027,2.639267 0.149746,1.310274 0.430519,2.508239 0.03744,0.224618 0.168464,0.336927 0.131027,0.09359 0.299491,0.09359 h 2.414648 q 0.2059,0 0.318209,-0.09359 0.112309,-0.112309 0.112309,-0.243336 z"
         id="path432" />
    </g>
    <g
       aria-label="O"
       transform="scale(0.92715432,1.0785691)"
       id="text5677"
       style="font-size:18.7182px;line-height:1.25;font-family:HarlequinFLF;-inkscape-font-specification:HarlequinFLF;text-align:center;text-anchor:middle;opacity:1;fill:#992e6a;stroke-width:0.467951">
      <path
         d="m 20.699204,87.039552 q 0,-0.954628 0.299492,-2.021565 0.299491,-1.085656 0.748728,-1.984129 0.467955,-0.898474 0.992064,-1.497457 0.542828,-0.598982 1.010783,-0.598982 0.449237,0 0.992065,0.598982 0.561546,0.580265 1.029501,1.478738 0.486673,0.879756 0.804882,1.946693 0.31821,1.048219 0.31821,2.002848 0,0.636419 -0.149746,1.160528 -0.131027,0.505392 -0.486673,0.879756 -0.355646,0.355645 -0.954628,0.561546 -0.598983,0.2059 -1.497456,0.2059 -0.823601,0 -1.403865,-0.131028 -0.580265,-0.131027 -0.973347,-0.430518 -0.374364,-0.31821 -0.561546,-0.842319 -0.168464,-0.52411 -0.168464,-1.328993 z m 8.703964,0.205901 q 0,-0.954629 -0.2059,-1.927975 -0.187183,-0.992065 -0.580265,-1.946693 -0.374364,-0.954628 -0.917192,-1.834384 -0.542827,-0.879755 -1.216683,-1.609765 -0.655137,-0.711291 -1.328992,-1.085655 -0.655137,-0.393083 -1.366428,-0.393083 -0.655138,0 -1.347711,0.355646 -0.673855,0.336928 -1.385147,1.123092 -0.655137,0.711292 -1.179246,1.628484 -0.505392,0.898473 -0.879756,1.890538 -0.355646,0.973346 -0.542828,1.965411 -0.187182,0.992065 -0.187182,1.890538 0,1.272838 0.280773,2.227466 0.299492,0.93591 0.954629,1.553611 0.655137,0.6177 1.703356,0.93591 1.066937,0.299491 2.583112,0.299491 1.740792,0 2.826448,-0.393082 1.104374,-0.393082 1.722074,-1.085656 0.617701,-0.692573 0.842319,-1.609765 0.224619,-0.917192 0.224619,-1.984129 z"
         id="path435" />
    </g>
    <g
       aria-label="M"
       transform="scale(0.92715432,1.0785691)"
       id="text5681"
       style="font-size:18.7182px;line-height:1.25;font-family:HarlequinFLF;-inkscape-font-specification:HarlequinFLF;text-align:center;text-anchor:middle;opacity:1;fill:#992e6a;stroke-width:0.467951">
      <path
         d="M 4.2757938,78.691235 H 2.703465 q -0.4866733,0 -0.6177007,0.505391 -0.2246184,0.786165 -0.374364,1.834384 -0.1310274,1.029501 -0.2059002,2.171311 -0.056155,1.141811 -0.056155,2.339775 0.018718,1.197965 0.093591,2.321057 0.074873,1.104374 0.2059002,2.077721 0.1497456,0.973346 0.3556458,1.665919 0.037436,0.187182 0.1497456,0.31821 0.1310274,0.131027 0.3182095,0.131027 h 1.9841292 q 0.2620548,0 0.3556458,-0.149745 Q 5.0245218,91.756539 4.8747762,91.494484 4.668876,91.082684 4.481694,90.296519 4.294512,89.491637 4.1447664,88.51829 3.9950208,87.526226 3.8827116,86.478006 3.7891206,85.429787 3.7516842,84.512595 q -0.037436,-0.93591 0,-1.609765 0.037436,-0.692573 0.1684638,-0.93591 0.093591,-0.168464 0.1684638,-0.187182 0.093591,-0.03744 0.2433366,0.112309 0.2433366,0.205901 0.6738552,0.842319 0.4492369,0.636419 0.9171919,1.46002 0.467955,0.823601 0.8610372,1.722074 0.4118004,0.898474 0.5802642,1.647202 0.037436,0.224619 0.2059002,0.336928 0.1684638,0.112309 0.3743641,0.112309 0.1684638,0 0.3369276,-0.112309 0.1684638,-0.112309 0.2059002,-0.336928 0.1310274,-0.748728 0.5241096,-1.66592 0.3930822,-0.93591 0.842319,-1.778229 0.4492364,-0.861037 0.8797554,-1.497456 0.449237,-0.636419 0.692573,-0.786164 0.205901,-0.131028 0.31821,0.112309 0.131027,0.243337 0.168464,0.93591 0.05615,0.673855 0.03744,1.591047 -0.01872,0.917192 -0.112309,1.984129 -0.07487,1.066938 -0.2059,2.059002 -0.131028,0.973347 -0.31821,1.796948 -0.168464,0.804882 -0.374364,1.216683 -0.09359,0.2059 0,0.374364 0.09359,0.149745 0.355646,0.149745 h 1.927975 q 0.2059,0 0.336927,-0.131027 0.149746,-0.131028 0.187182,-0.336928 0.187182,-0.748728 0.299492,-1.759511 0.131027,-1.010782 0.187182,-2.133874 0.05615,-1.123093 0.03744,-2.302339 0,-1.197965 -0.07487,-2.321057 -0.05615,-1.123092 -0.168464,-2.115157 -0.112309,-0.992064 -0.280773,-1.722074 -0.112309,-0.542828 -0.636418,-0.542828 h -1.759511 q -0.430519,0 -0.842319,0.374364 -0.711292,0.673855 -1.3289926,1.441301 -0.5989824,0.748728 -1.1418102,1.909257 -0.093591,0.2059 -0.1310275,0.2059 Q 7.8884065,82.603339 7.7760973,82.397439 7.4578879,81.817174 7.1583967,81.330501 6.8776237,80.843828 6.5781325,80.450746 6.2786413,80.057664 5.9604319,79.739454 5.6609407,79.402527 5.2865767,79.103035 5.0619582,78.934572 4.8186216,78.822262 4.575285,78.691235 4.2757938,78.691235 Z"
         id="path438" />
    </g>
    <g
       aria-label="O"
       transform="scale(0.92715432,1.0785691)"
       id="text5689"
       style="font-size:18.7182px;line-height:1.25;font-family:HarlequinFLF;-inkscape-font-specification:HarlequinFLF;text-align:center;text-anchor:middle;opacity:1;fill:#992e6a;stroke-width:0.467951">
      <path
         d="m 68.26965,71.468233 q 0,-0.954628 0.299492,-2.021566 0.299491,-1.085655 0.748728,-1.984129 0.467955,-0.898474 0.992064,-1.497456 0.542828,-0.598983 1.010783,-0.598983 0.449237,0 0.992065,0.598983 0.561546,0.580264 1.029501,1.478738 0.486673,0.879755 0.804882,1.946693 0.31821,1.048219 0.31821,2.002847 0,0.636419 -0.149746,1.160529 -0.131027,0.505391 -0.486673,0.879755 -0.355646,0.355646 -0.954628,0.561546 -0.598983,0.2059 -1.497456,0.2059 -0.823601,0 -1.403865,-0.131027 Q 69.392742,73.939035 68.99966,73.639544 68.625296,73.321335 68.438114,72.797225 68.26965,72.273116 68.26965,71.468233 Z m 8.703964,0.2059 q 0,-0.954628 -0.2059,-1.927975 -0.187182,-0.992064 -0.580265,-1.946692 -0.374364,-0.954629 -0.917192,-1.834384 -0.542827,-0.879756 -1.216683,-1.609765 -0.655137,-0.711292 -1.328992,-1.085656 -0.655137,-0.393082 -1.366428,-0.393082 -0.655138,0 -1.347711,0.355646 -0.673855,0.336927 -1.385147,1.123092 -0.655137,0.711291 -1.179246,1.628483 -0.505392,0.898474 -0.879756,1.890538 -0.355646,0.973347 -0.542828,1.965411 -0.187182,0.992065 -0.187182,1.890539 0,1.272837 0.280773,2.227466 0.299492,0.93591 0.954629,1.55361 0.655137,0.617701 1.703356,0.93591 1.066937,0.299492 2.583112,0.299492 1.740792,0 2.826448,-0.393083 1.104374,-0.393082 1.722074,-1.085655 0.617701,-0.692574 0.842319,-1.609766 0.224619,-0.917191 0.224619,-1.984129 z"
         id="path441" />
    </g>
    <g
       aria-label="R"
       transform="scale(0.96238073,1.0390898)"
       id="text5693"
       style="font-size:19.4295px;line-height:1.25;font-family:HarlequinFLF;-inkscape-font-specification:HarlequinFLF;text-align:center;text-anchor:middle;opacity:1;fill:#992e6a;stroke-width:0.485731">
      <path
         d="m 52.359642,69.947941 q 0,-0.563455 0.07772,-1.126911 0.07772,-0.582885 0.174865,-0.913186 0.07772,-0.213725 0.291443,-0.310872 0.233154,-0.09715 0.893757,-0.09715 0.990904,0 1.496071,0.330302 0.524597,0.310872 0.524597,0.835468 0,0.505167 -0.40802,1.010334 -0.38859,0.485738 -0.893757,0.893757 -0.505167,0.38859 -0.990904,0.641174 -0.466308,0.252583 -0.602315,0.252583 -0.349731,0 -0.427449,-0.252583 -0.03886,-0.213725 -0.09715,-0.544026 -0.03886,-0.330302 -0.03886,-0.718892 z m 4.196772,1.94295 q 0,-0.155436 0.213724,-0.310872 0.932616,-0.680032 1.360065,-1.53493 0.427449,-0.874328 0.427449,-1.670937 0,-0.582885 -0.213724,-1.107482 -0.194295,-0.524596 -0.582885,-0.913186 -0.369161,-0.38859 -0.932616,-0.602315 -0.563456,-0.233154 -1.282347,-0.233154 h -4.449356 q -0.36916,0 -0.563455,0.213724 -0.174866,0.213725 -0.233154,0.485738 -0.272013,1.321206 -0.38859,2.933855 -0.116577,1.593219 -0.116577,3.244726 0,1.826373 0.136006,3.536169 0.136007,1.690367 0.349731,2.914425 0.03886,0.233154 0.174866,0.38859 0.155436,0.155436 0.446878,0.155436 h 1.787514 q 0.505167,0 0.505167,-0.427449 0,-0.07772 -0.01943,-0.194295 -0.01943,-0.136006 -0.07772,-0.349731 -0.03886,-0.136006 -0.136007,-0.524596 -0.07772,-0.40802 -0.174865,-0.913187 -0.09715,-0.505167 -0.174866,-1.029763 -0.07772,-0.544026 -0.07772,-0.971475 0,-0.252584 0.01943,-0.40802 0.01943,-0.155436 0.05829,-0.252583 0.05829,-0.09715 0.155436,-0.174866 0.09715,-0.07772 0.272013,-0.174865 0.38859,-0.174866 0.835469,-0.369161 0.446878,-0.213724 0.77718,-0.36916 0.05829,-0.03886 0.174865,-0.03886 0.136007,0 0.233154,0.09715 0.485738,0.427449 0.79661,1.088052 0.330301,0.641174 0.524596,1.379495 0.213725,0.738321 0.291443,1.53493 0.09715,0.77718 0.136006,1.476642 0.01943,0.621744 0.446879,0.621744 h 1.962379 q 0.485738,0 0.485738,-0.505167 0,-0.136006 -0.01943,-0.213724 -0.01943,-0.09715 -0.05829,-0.233154 -0.174866,-0.893757 -0.38859,-1.768085 -0.194295,-0.874327 -0.505167,-1.690366 -0.310872,-0.816039 -0.79661,-1.515501 -0.485737,-0.718892 -1.204629,-1.301777 -0.174865,-0.136006 -0.174865,-0.272013 z"
         id="path444" />
    </g>
    <g
       aria-label="D"
       transform="scale(0.92715432,1.0785691)"
       id="text5697"
       style="font-size:18.7182px;line-height:1.25;font-family:HarlequinFLF;-inkscape-font-specification:HarlequinFLF;text-align:center;text-anchor:middle;opacity:1;fill:#992e6a;stroke-width:0.467951">
      <path
         d="m 40.17663,63.119915 h -2.040284 q -0.374364,0 -0.636419,0.187182 -0.243336,0.168464 -0.336927,0.580265 -0.243337,1.216683 -0.355646,2.657984 -0.09359,1.422583 -0.09359,2.901321 0,1.796948 0.131027,3.462867 0.131028,1.66592 0.336928,2.863885 0.07487,0.374364 0.262055,0.542828 0.187182,0.168464 0.6177,0.168464 h 3.986977 q 1.14181,0 1.984129,-0.411801 0.861037,-0.4118 1.422583,-1.123092 0.561547,-0.711291 0.84232,-1.647201 0.280773,-0.954629 0.280773,-2.040284 0,-0.804883 -0.187182,-1.703357 Q 46.22261,68.641785 45.866964,67.743311 45.511317,66.826119 44.968489,66.002518 44.44438,65.160199 43.733088,64.52378 43.021796,63.887362 42.123323,63.512998 41.243567,63.119915 40.17663,63.119915 Z m -0.804883,2.526957 q 0.05616,-0.318209 0.299491,-0.467955 0.262055,-0.149745 0.598983,-0.149745 0.692573,0 1.34771,0.561546 0.655137,0.561546 1.160529,1.422583 0.505391,0.861037 0.804882,1.87182 0.31821,1.010783 0.31821,1.909257 0,0.842319 -0.262055,1.478738 -0.243337,0.636418 -0.636419,1.066937 -0.393082,0.4118 -0.898473,0.636419 -0.505392,0.2059 -1.010783,0.2059 -0.692574,0 -1.066938,-0.224618 -0.374364,-0.243337 -0.430518,-0.430519 -0.224619,-0.692573 -0.355646,-1.834384 -0.131028,-1.14181 -0.131028,-2.470802 0,-0.898474 0.05615,-1.796947 0.05616,-0.917192 0.2059,-1.77823 z"
         id="path312" />
    </g>
    <g
       aria-label="Y"
       transform="scale(0.92715432,1.0785691)"
       id="text5701"
       style="font-size:18.7182px;line-height:1.25;font-family:HarlequinFLF;-inkscape-font-specification:HarlequinFLF;text-align:center;text-anchor:middle;opacity:1;fill:#992e6a;stroke-width:0.467951">
      <path
         d="m 27.468324,75.586237 q -0.03744,-0.168464 -0.07487,-0.52411 -0.03744,-0.374364 -0.03744,-0.730009 0,-0.842319 0.2059,-1.553611 0.224618,-0.73001 0.561546,-1.328992 0.336928,-0.598983 0.748728,-1.085656 0.430519,-0.486673 0.842319,-0.879755 0.52411,-0.486674 0.992065,-1.123092 0.467955,-0.655137 0.823601,-1.403865 0.374364,-0.767447 0.580264,-1.628484 0.224618,-0.861037 0.224618,-1.796947 0,-0.411801 -0.505391,-0.411801 H 30.2199 q -0.505392,0 -0.505392,0.505392 0,1.066937 -0.299491,2.059002 -0.280773,0.973346 -0.673855,1.722074 -0.393083,0.73001 -0.804883,1.179247 -0.393082,0.430519 -0.598982,0.430519 -0.205901,0 -0.598983,-0.430519 -0.393082,-0.430519 -0.786164,-1.160528 -0.374364,-0.73001 -0.673855,-1.684638 -0.280773,-0.973347 -0.280773,-2.040284 0,-0.262055 -0.131028,-0.411801 -0.112309,-0.168464 -0.4118,-0.168464 h -1.516175 q -0.224618,0 -0.374364,0.131028 -0.131027,0.131027 -0.131027,0.4118 0,0.992065 0.318209,2.077721 0.31821,1.066937 0.804883,2.040283 0.505392,0.954629 1.123092,1.740793 0.617701,0.786164 1.216683,1.179247 0.09359,0.05615 0.09359,0.149745 0,0.07487 -0.05615,0.168464 -0.03744,0.07487 -0.09359,0.2059 -0.187182,0.374364 -0.393083,0.861038 -0.187182,0.486673 -0.355645,1.029501 -0.149746,0.524109 -0.262055,1.085655 -0.09359,0.561546 -0.09359,1.066938 0,0.655137 0.149745,0.93591 0.149746,0.280773 0.486674,0.280773 h 1.591047 q 0.262054,0 0.430518,-0.11231 0.168464,-0.112309 0.168464,-0.299491 0,-0.149745 -0.03744,-0.224618 -0.01872,-0.09359 -0.05616,-0.262055 z"
         id="path420" />
    </g>
    <g
       aria-label="H"
       transform="scale(0.92715432,1.0785691)"
       id="text5705"
       style="font-size:18.7182px;line-height:1.25;font-family:HarlequinFLF;-inkscape-font-specification:HarlequinFLF;text-align:center;text-anchor:middle;opacity:1;fill:#992e6a;stroke-width:0.467951">
      <path
         d="M 9.7681835,63.119915 H 8.2145729 q -0.3369276,0 -0.5053914,0.131028 -0.1497456,0.112309 -0.2246184,0.374364 -0.3743641,1.34771 -0.6177007,2.994912 -0.2433366,1.628483 -0.3182094,3.313121 -0.074873,1.66592 0.037436,3.238249 0.1123092,1.572329 0.467955,2.751576 0.056155,0.224618 0.2059003,0.393082 0.1684638,0.168464 0.4866732,0.168464 h 1.8156654 q 0.7674471,0 0.4679551,-0.617701 -0.2994913,-0.580264 -0.5241097,-1.272838 -0.2246184,-0.692573 -0.3182094,-1.34771 -0.093591,-0.655137 -0.037436,-1.197965 0.074873,-0.542828 0.3556458,-0.804882 0.3182094,-0.299492 0.9359103,-0.505392 0.6177,-0.224618 1.291556,-0.299491 0.673855,-0.09359 1.291555,-0.01872 0.636419,0.07487 0.973347,0.374364 0.280773,0.243336 0.280773,0.842319 0.01872,0.598982 -0.131027,1.34771 -0.131028,0.73001 -0.393083,1.516174 -0.262055,0.767447 -0.542828,1.347711 -0.318209,0.636419 0.374364,0.636419 h 1.927975 q 0.280773,0 0.430519,-0.131028 0.149745,-0.149745 0.243336,-0.467955 0.336928,-1.366428 0.449237,-2.920039 0.131028,-1.572329 0.07487,-3.163376 -0.05616,-1.609765 -0.262055,-3.163376 -0.2059,-1.572329 -0.505391,-2.957476 -0.131028,-0.561546 -0.767446,-0.561546 H 13.34336 q -0.31821,0 -0.430519,0.168464 -0.112309,0.149746 0.01872,0.411801 0.299492,0.673855 0.542828,1.34771 0.243337,0.655137 0.374364,1.25412 0.149746,0.580264 0.187182,1.029501 0.03744,0.430518 -0.07487,0.655137 -0.112309,0.224618 -0.355645,0.187182 -0.374364,-0.05615 -0.842319,-0.01872 -0.449237,0.01872 -0.954629,0.11231 -0.486673,0.07487 -0.954628,0.2059 -0.467955,0.131027 -0.842319,0.262055 -0.3369275,0.112309 -0.5241095,-0.205901 -0.1123092,-0.168463 -0.1310274,-0.673855 -0.018718,-0.505391 0.056155,-1.179246 0.074873,-0.692574 0.2620548,-1.46002 0.2059002,-0.786165 0.5241091,-1.516174 0.131028,-0.262055 0,-0.411801 -0.112309,-0.168464 -0.4305181,-0.168464 z"
         id="path417" />
    </g>
  </g>
</svg>
