<?xml version="1.0" encoding="UTF-8" standalone="no"?>
<!-- Created with Inkscape (http://www.inkscape.org/) -->

<svg
   version="1.1"
   id="svg9"
   width="64"
   height="64"
   viewBox="0 0 64 64"
   xmlns="http://www.w3.org/2000/svg"
   xmlns:svg="http://www.w3.org/2000/svg">
  <defs
     id="defs13" />
  <g
     id="layer1"
     style="opacity:1">
    <g
       id="g24"
       transform="matrix(0.64794959,0,0,0.64794959,-0.25284977,-0.2271042)">
      <path
         id="path306"
         style="fill:#b4d333;fill-opacity:1;stroke:#000000;stroke-opacity:0"
         d="M 49.498199,1.8634484 C 26.904582,1.9265564 7.4220502,17.757033 2.7364802,39.859543 c 2.32031,-1.466973 5.02543,-2.289704 7.8339808,-2.328125 0.49211,-0.0065 0.98423,0.01105 1.47461,0.05273 2.96503,0.250597 5.789149,1.374809 8.115237,3.230468 0.05831,0.04838 0.116258,0.09723 0.173828,0.146485 4.105795,3.169394 8.322104,6.637858 12.433984,9.951052 1.332467,1.339711 2.951455,2.134534 4.667576,2.168084 1.585532,-0.01871 3.232486,-0.644825 4.464843,-1.855468 3.152918,-2.910147 6.01125,-6.323913 8.742187,-8.912106 0.05166,-0.05573 0.10375,-0.111075 0.15625,-0.166015 2.053905,-2.011161 4.640995,-3.391801 7.455078,-3.978516 1.308539,-0.408792 2.666813,-0.636814 4.037109,-0.677734 0.492103,-0.0065 0.984232,0.01104 1.47461,0.05273 2.965023,0.250597 5.789146,1.374809 8.115234,3.230469 0.05831,0.04839 0.116258,0.09721 0.173828,0.146484 3.984058,3.325207 8.075066,6.960197 12.0625,10.431641 1.642294,1.132463 3.322942,1.65395 5.039063,1.6875 1.585532,-0.0187 3.119206,-0.687795 4.351562,-1.898438 2.472351,-2.104301 3.933637,-3.416322 3.660011,-6.384218 C 94.62089,20.515127 74.144573,1.86494 49.498199,1.8634484 Z" />
      <path
         id="path306-4"
         style="opacity:1;fill:#992e6a;fill-opacity:1;stroke:#000000;stroke-opacity:0"
         d="m 50.203418,97.8118 c 22.593617,-0.06311 42.076157,-15.893586 46.761717,-37.996095 -2.32031,1.46697 -5.02542,2.2897 -7.83398,2.32812 -0.4921,0.007 -0.98423,-0.011 -1.47461,-0.0527 -2.965025,-0.25059 -5.789148,-1.3748 -8.115236,-3.23046 -0.05831,-0.0484 -0.116258,-0.0972 -0.173828,-0.14649 -4.10583,-3.169465 -8.322088,-6.637866 -12.433984,-9.951073 -1.332467,-1.33971 -2.951455,-2.13453 -4.667576,-2.16808 -1.585532,0.0187 -3.232486,0.64482 -4.464843,1.85546 -3.152918,2.910153 -6.01125,6.323923 -8.742187,8.912113 -0.05166,0.0557 -0.10375,0.11107 -0.15625,0.16601 -2.053905,2.01117 -4.640995,3.39181 -7.455078,3.97852 -1.308539,0.40879 -2.666813,0.63681 -4.037109,0.67773 -0.492103,0.007 -0.984232,-0.011 -1.47461,-0.0527 -2.965023,-0.25059 -5.789146,-1.3748 -8.115234,-3.23046 -0.05831,-0.0484 -0.116258,-0.0972 -0.173828,-0.14649 -3.984058,-3.32521 -8.075066,-6.9602 -12.062507,-10.431643 -1.64229,-1.13246 -3.32294,-1.65395 -5.03906,-1.6875 -1.58553,0.0187 -3.11921,0.6878 -4.35156,1.89844 -3.1645,2.425521 -3.96653,4.211157 -3.49459,7.766464 3.16505,23.564495 23.328527,41.509364 47.504353,41.510834 z" />
    </g>
  </g>
</svg>
