<?xml version="1.0" encoding="UTF-8" standalone="no"?>
<!-- Created with Inkscape (http://www.inkscape.org/) -->

<svg
   viewBox="0 0 258 64"
   height="64"
   width="258"
   id="svg9"
   version="1.1"
   xmlns="http://www.w3.org/2000/svg"
   xmlns:svg="http://www.w3.org/2000/svg">
  <defs
     id="defs13" />
  <g
     id="layer1"
     style="opacity:1">
    <g
       id="g24"
       transform="matrix(0.65370815,0,0,0.65370815,-0.43278807,-0.56042307)"
       style="fill:#ff0000">
      <path
         id="path306"
         style="display:inline;fill:#b4d333;fill-opacity:1;stroke:#000000;stroke-opacity:0"
         d="M 49.498199,1.8634484 C 26.904582,1.9265564 7.4220502,17.757033 2.7364802,39.859543 c 2.32031,-1.466973 5.02543,-2.289704 7.8339808,-2.328125 0.49211,-0.0065 0.98423,0.01105 1.47461,0.05273 2.96503,0.250597 5.789149,1.374809 8.115237,3.230468 0.05831,0.04838 0.116258,0.09723 0.173828,0.146485 4.105795,3.169394 8.322104,6.637858 12.433984,9.951052 1.332467,1.339711 2.951455,2.134534 4.667576,2.168084 1.585532,-0.01871 3.232486,-0.644825 4.464843,-1.855468 3.152918,-2.910147 6.01125,-6.323913 8.742187,-8.912106 0.05166,-0.05573 0.10375,-0.111075 0.15625,-0.166015 2.053905,-2.011161 4.640995,-3.391801 7.455078,-3.978516 1.308539,-0.408792 2.666813,-0.636814 4.037109,-0.677734 0.492103,-0.0065 0.984232,0.01104 1.47461,0.05273 2.965023,0.250597 5.789146,1.374809 8.115234,3.230469 0.05831,0.04839 0.116258,0.09721 0.173828,0.146484 3.984058,3.325207 8.075066,6.960197 12.0625,10.431641 1.642294,1.132463 3.322942,1.65395 5.039063,1.6875 1.585532,-0.0187 3.119206,-0.687795 4.351562,-1.898438 2.472351,-2.104301 3.933637,-3.416322 3.660011,-6.384218 C 94.62089,20.515127 74.144573,1.86494 49.498199,1.8634484 Z" />
      <path
         id="path306-4"
         style="display:inline;opacity:1;fill:#992e6a;fill-opacity:1;stroke:#000000;stroke-opacity:0"
         d="m 50.203418,97.8118 c 22.593617,-0.06311 42.076157,-15.893586 46.761717,-37.996095 -2.32031,1.46697 -5.02542,2.2897 -7.83398,2.32812 -0.4921,0.007 -0.98423,-0.011 -1.47461,-0.0527 -2.965025,-0.25059 -5.789148,-1.3748 -8.115236,-3.23046 -0.05831,-0.0484 -0.116258,-0.0972 -0.173828,-0.14649 -4.10583,-3.169465 -8.322088,-6.637866 -12.433984,-9.951073 -1.332467,-1.33971 -2.951455,-2.13453 -4.667576,-2.16808 -1.585532,0.0187 -3.232486,0.64482 -4.464843,1.85546 -3.152918,2.910153 -6.01125,6.323923 -8.742187,8.912113 -0.05166,0.0557 -0.10375,0.11107 -0.15625,0.16601 -2.053905,2.01117 -4.640995,3.39181 -7.455078,3.97852 -1.308539,0.40879 -2.666813,0.63681 -4.037109,0.67773 -0.492103,0.007 -0.984232,-0.011 -1.47461,-0.0527 -2.965023,-0.25059 -5.789146,-1.3748 -8.115234,-3.23046 -0.05831,-0.0484 -0.116258,-0.0972 -0.173828,-0.14649 -3.984058,-3.32521 -8.075066,-6.9602 -12.062507,-10.431643 -1.64229,-1.13246 -3.32294,-1.65395 -5.03906,-1.6875 -1.58553,0.0187 -3.11921,0.6878 -4.35156,1.89844 -3.1645,2.425521 -3.96653,4.211157 -3.49459,7.766464 3.16505,23.564495 23.328527,41.509364 47.504353,41.510834 z" />
    </g>
    <g
       aria-label="S"
       transform="scale(0.92715432,1.0785691)"
       id="text5661"
       style="font-size:22.8164px;line-height:1.25;font-family:HarlequinFLF;-inkscape-font-specification:HarlequinFLF;text-align:center;text-anchor:middle;fill:#992e6a;stroke-width:0.570406">
      <path
         d="m 266.23794,30.549082 q -0.0684,0 -0.20535,0.182532 -0.11408,0.182531 -0.25098,0.479144 -0.11408,0.296613 -0.22816,0.684492 -0.0913,0.365062 -0.0913,0.775758 0,0.867023 0.31943,1.597148 0.34225,0.730124 1.00392,1.254902 0.68449,0.524777 1.68842,0.82139 1.00392,0.31943 2.35008,0.31943 1.55152,0 2.71516,-0.342246 1.18645,-0.365063 1.96221,-1.003922 0.79857,-0.638859 1.18645,-1.505882 0.41069,-0.867024 0.41069,-1.870945 0,-0.912656 -0.29661,-1.734047 -0.29661,-0.844206 -0.86702,-1.528698 -0.57041,-0.707309 -1.43743,-1.186453 -0.84421,-0.501961 -1.96222,-0.730125 -1.55151,-0.31943 -2.3729,-0.821391 -0.82139,-0.50196 -0.82139,-1.368984 0,-1.095187 0.70731,-1.619964 0.73012,-0.524777 2.57825,-0.524777 0.45633,0 0.77576,0.09126 0.31943,0.09127 0.54759,0.250981 0.22817,0.136898 0.36506,0.319429 0.1369,0.159715 0.25098,0.31943 0.11409,0.159715 0.18254,0.273797 0.0913,0.09126 0.25098,0.09126 0.27379,0 0.47914,-0.159714 0.20535,-0.159715 0.34225,-0.410696 0.13689,-0.25098 0.20534,-0.524777 0.0685,-0.296613 0.0685,-0.547593 0,-0.387879 -0.18253,-0.798574 -0.15971,-0.433512 -0.57041,-0.775758 -0.38788,-0.365062 -1.07237,-0.593226 -0.66167,-0.228164 -1.64278,-0.228164 -1.43743,0 -2.60107,0.319429 -1.16364,0.31943 -1.96221,0.958289 -0.79857,0.616043 -1.23209,1.551515 -0.43351,0.912656 -0.43351,2.099109 0,1.003922 0.29662,1.779679 0.29661,0.752941 0.91265,1.346168 0.63886,0.593226 1.61997,1.049554 1.00392,0.433512 2.39572,0.775758 1.02674,0.25098 1.57433,0.798574 0.57041,0.547594 0.57041,1.277718 0,0.867024 -0.77576,1.437434 -0.75294,0.547593 -2.21319,0.547593 -1.18645,0 -2.00784,-0.25098 -0.79858,-0.250981 -1.32335,-0.661676 -0.52478,-0.433511 -0.79858,-0.981105 -0.27379,-0.547594 -0.34224,-1.14082 -0.0228,-0.09127 -0.0685,-0.09127 z"
         id="path296" />
    </g>
    <g
       aria-label="R"
       transform="scale(0.96354838,1.0378306)"
       id="text5665"
       style="font-size:23.712px;line-height:1.25;font-family:HarlequinFLF;-inkscape-font-specification:HarlequinFLF;text-align:center;text-anchor:middle;fill:#992e6a;stroke-width:0.592796">
      <path
         d="m 243.08876,26.24706 q 0,-0.687648 0.0948,-1.375296 0.0949,-0.71136 0.21341,-1.114464 0.0949,-0.260832 0.35568,-0.379392 0.28454,-0.11856 1.09075,-0.11856 1.20931,0 1.82583,0.403104 0.64022,0.379392 0.64022,1.019616 0,0.616512 -0.49795,1.233024 -0.47424,0.5928 -1.09075,1.090752 -0.61652,0.47424 -1.20932,0.782496 -0.56908,0.308256 -0.73507,0.308256 -0.42681,0 -0.52166,-0.308256 -0.0474,-0.260832 -0.11856,-0.663936 -0.0474,-0.403104 -0.0474,-0.877344 z m 5.1218,2.3712 q 0,-0.189696 0.26083,-0.379392 1.13817,-0.82992 1.65984,-1.873248 0.52166,-1.06704 0.52166,-2.039232 0,-0.71136 -0.26083,-1.351584 -0.23712,-0.640224 -0.71136,-1.114464 -0.45053,-0.47424 -1.13818,-0.735072 -0.68764,-0.284544 -1.56499,-0.284544 h -5.43005 q -0.45052,0 -0.68764,0.260832 -0.21341,0.260832 -0.28455,0.5928 -0.33197,1.612416 -0.47424,3.580512 -0.14227,1.944384 -0.14227,3.959903 0,2.228928 0.16598,4.315584 0.16599,2.062944 0.42682,3.5568 0.0474,0.284544 0.21341,0.47424 0.18969,0.189696 0.54537,0.189696 h 2.18151 q 0.61651,0 0.61651,-0.521664 0,-0.09485 -0.0237,-0.23712 -0.0237,-0.165984 -0.0948,-0.426816 -0.0474,-0.165984 -0.16598,-0.640224 -0.0948,-0.497952 -0.21341,-1.114464 -0.11856,-0.616512 -0.21341,-1.256736 -0.0949,-0.663936 -0.0949,-1.1856 0,-0.308256 0.0237,-0.497952 0.0237,-0.189696 0.0711,-0.308256 0.0711,-0.11856 0.1897,-0.213408 0.11856,-0.09485 0.33196,-0.213408 0.47424,-0.213408 1.01962,-0.450528 0.54538,-0.260832 0.94848,-0.450528 0.0711,-0.04742 0.21341,-0.04742 0.16598,0 0.28454,0.11856 0.5928,0.521664 0.97219,1.327872 0.40311,0.782496 0.64023,1.683552 0.26083,0.901056 0.35568,1.873248 0.11856,0.94848 0.16598,1.802112 0.0237,0.758784 0.54538,0.758784 h 2.39491 q 0.5928,0 0.5928,-0.616512 0,-0.165984 -0.0237,-0.260832 -0.0237,-0.11856 -0.0711,-0.284544 -0.21341,-1.090752 -0.47424,-2.157792 -0.23712,-1.06704 -0.61651,-2.062944 -0.37939,-0.995904 -0.97219,-1.849536 -0.5928,-0.877344 -1.47015,-1.588703 -0.2134,-0.165984 -0.2134,-0.331968 z"
         id="path299" />
    </g>
    <g
       aria-label="O"
       transform="scale(0.92715432,1.0785691)"
       id="text5669"
       style="font-size:22.8164px;line-height:1.25;font-family:HarlequinFLF;-inkscape-font-specification:HarlequinFLF;text-align:center;text-anchor:middle;fill:#992e6a;stroke-width:0.570406">
      <path
         d="m 234.73123,30.229653 q 0,-1.163637 0.36506,-2.464172 0.36506,-1.323351 0.91266,-2.418538 0.57041,-1.095187 1.20927,-1.825312 0.66167,-0.730125 1.23208,-0.730125 0.5476,0 1.20927,0.730125 0.68449,0.707308 1.2549,1.802496 0.59323,1.07237 0.98111,2.372905 0.38788,1.277719 0.38788,2.441355 0,0.775758 -0.18253,1.414617 -0.15972,0.616043 -0.59323,1.072371 -0.43351,0.433511 -1.16364,0.684492 -0.73012,0.25098 -1.82531,0.25098 -1.00392,0 -1.71123,-0.159715 -0.70731,-0.159714 -1.18645,-0.524777 -0.45633,-0.387879 -0.68449,-1.026738 -0.20535,-0.638859 -0.20535,-1.619964 z m 10.60962,0.25098 q 0,-1.163636 -0.25098,-2.350089 -0.22816,-1.209269 -0.7073,-2.372906 -0.45633,-1.163636 -1.11801,-2.236007 -0.66167,-1.072371 -1.48306,-1.96221 -0.79858,-0.867024 -1.61997,-1.323352 -0.79857,-0.479144 -1.6656,-0.479144 -0.79857,0 -1.64278,0.433512 -0.82139,0.410695 -1.68841,1.368984 -0.79857,0.867023 -1.43743,1.985026 -0.61605,1.095188 -1.07237,2.304457 -0.43352,1.186453 -0.66168,2.395722 -0.22816,1.209269 -0.22816,2.304456 0,1.551516 0.34224,2.715152 0.36506,1.14082 1.16364,1.893761 0.79857,0.752941 2.07629,1.14082 1.30054,0.365063 3.14866,0.365063 2.12193,0 3.44528,-0.479145 1.34617,-0.479144 2.09911,-1.323351 0.75294,-0.844207 1.02674,-1.96221 0.27379,-1.118004 0.27379,-2.418539 z"
         id="path302" />
    </g>
    <g
       aria-label="T"
       transform="scale(0.92715432,1.0785691)"
       id="text5673"
       style="font-size:22.8164px;line-height:1.25;font-family:HarlequinFLF;-inkscape-font-specification:HarlequinFLF;text-align:center;text-anchor:middle;fill:#992e6a;stroke-width:0.570406">
      <path
         d="m 224.374,35.933753 q 0,-0.06845 0,-0.114082 0,-0.04563 -0.0456,-0.159715 -0.25099,-0.798574 -0.50197,-1.756863 -0.25098,-0.958289 -0.47914,-2.007843 -0.20535,-1.072371 -0.34225,-2.190374 -0.13689,-1.14082 -0.13689,-2.281641 0,-1.118003 0.15971,-2.21319 0.15972,-1.118004 0.54759,-2.167558 0.15972,-0.479145 0.61605,-0.479145 0.75294,0 1.50588,0.342246 0.75294,0.31943 1.20927,0.775758 0.11408,0.114082 0.25098,0.114082 0.2738,0 0.47914,-0.31943 0.1369,-0.205347 0.2738,-0.524777 0.1369,-0.31943 0.25098,-0.638859 0.11408,-0.31943 0.18253,-0.593227 0.0684,-0.273796 0.0684,-0.433511 0,-0.684492 -0.45633,-0.821391 -1.3918,-0.387878 -2.80641,-0.547593 -1.3918,-0.182531 -2.73797,-0.182531 -1.50588,0 -2.87487,0.182531 -1.34617,0.182531 -2.44135,0.479144 -0.25098,0.06845 -0.43352,0.296613 -0.15971,0.228164 -0.25098,0.433512 -0.13689,0.31943 -0.27379,0.707308 -0.11408,0.387879 -0.20535,0.775758 -0.0913,0.365062 -0.15971,0.707308 -0.0685,0.342246 -0.0685,0.616043 0,0.342246 0.27379,0.342246 0.15972,0 0.29662,-0.114082 0.43351,-0.342246 0.91265,-0.616043 0.50196,-0.296613 0.98111,-0.50196 0.47914,-0.228164 0.91265,-0.342246 0.45633,-0.136899 0.79858,-0.136899 0.57041,0 0.57041,0.31943 0,0.159715 -0.0228,0.273797 -0.0228,0.114082 -0.0685,0.25098 -0.31943,1.186453 -0.52478,2.806417 -0.18253,1.597148 -0.18253,3.331195 0,1.619964 0.15972,3.217112 0.18253,1.597148 0.52478,3.057398 0.0456,0.273797 0.20534,0.410695 0.15972,0.114082 0.36507,0.114082 h 2.94331 q 0.25098,0 0.38788,-0.114082 0.1369,-0.136898 0.1369,-0.296613 z"
         id="path305" />
    </g>
    <g
       aria-label="O"
       transform="scale(0.92715432,1.0785691)"
       id="text5677"
       style="font-size:22.8164px;line-height:1.25;font-family:HarlequinFLF;-inkscape-font-specification:HarlequinFLF;text-align:center;text-anchor:middle;fill:#992e6a;stroke-width:0.570406">
      <path
         d="m 201.37651,30.229653 q 0,-1.163637 0.36506,-2.464172 0.36506,-1.323351 0.91266,-2.418538 0.57041,-1.095187 1.20926,-1.825312 0.66168,-0.730125 1.23209,-0.730125 0.54759,0 1.20927,0.730125 0.68449,0.707308 1.2549,1.802496 0.59323,1.07237 0.98111,2.372905 0.38788,1.277719 0.38788,2.441355 0,0.775758 -0.18254,1.414617 -0.15971,0.616043 -0.59322,1.072371 -0.43351,0.433511 -1.16364,0.684492 -0.73012,0.25098 -1.82531,0.25098 -1.00392,0 -1.71123,-0.159715 -0.70731,-0.159714 -1.18645,-0.524777 -0.45633,-0.387879 -0.6845,-1.026738 -0.20534,-0.638859 -0.20534,-1.619964 z m 10.60962,0.25098 q 0,-1.163636 -0.25098,-2.350089 -0.22816,-1.209269 -0.70731,-2.372906 -0.45632,-1.163636 -1.118,-2.236007 -0.66167,-1.072371 -1.48307,-1.96221 -0.79857,-0.867024 -1.61996,-1.323352 -0.79857,-0.479144 -1.6656,-0.479144 -0.79857,0 -1.64278,0.433512 -0.82139,0.410695 -1.68841,1.368984 -0.79858,0.867023 -1.43743,1.985026 -0.61605,1.095188 -1.07238,2.304457 -0.43351,1.186453 -0.66167,2.395722 -0.22816,1.209269 -0.22816,2.304456 0,1.551516 0.34224,2.715152 0.36506,1.14082 1.16364,1.893761 0.79857,0.752941 2.07629,1.14082 1.30053,0.365063 3.14866,0.365063 2.12193,0 3.44528,-0.479145 1.34617,-0.479144 2.09911,-1.323351 0.75294,-0.844207 1.02674,-1.96221 0.27379,-1.118004 0.27379,-2.418539 z"
         id="path308" />
    </g>
    <g
       aria-label="M"
       transform="scale(0.92715432,1.0785691)"
       id="text5681"
       style="font-size:22.8164px;line-height:1.25;font-family:HarlequinFLF;-inkscape-font-specification:HarlequinFLF;text-align:center;text-anchor:middle;fill:#992e6a;stroke-width:0.570406">
      <path
         d="m 181.3574,20.053538 h -1.91658 q -0.59323,0 -0.75294,0.616043 -0.2738,0.958289 -0.45633,2.236007 -0.15971,1.254902 -0.25098,2.646703 -0.0685,1.3918 -0.0685,2.85205 0.0228,1.460249 0.11408,2.829233 0.0913,1.346168 0.25098,2.532621 0.18253,1.186453 0.43352,2.030659 0.0456,0.228164 0.18253,0.387879 0.15971,0.159715 0.38788,0.159715 h 2.41853 q 0.31943,0 0.43352,-0.182531 0.13689,-0.182531 -0.0456,-0.501961 -0.25098,-0.501961 -0.47914,-1.46025 -0.22817,-0.981105 -0.4107,-2.167558 -0.18253,-1.209269 -0.31943,-2.486987 -0.11408,-1.277719 -0.15971,-2.395722 -0.0456,-1.14082 0,-1.962211 0.0456,-0.844207 0.20535,-1.14082 0.11408,-0.205347 0.20534,-0.228164 0.11409,-0.04563 0.29662,0.136899 0.29661,0.25098 0.82139,1.026738 0.54759,0.775757 1.118,1.779679 0.57041,1.003921 1.04956,2.099109 0.50196,1.095187 0.7073,2.007843 0.0456,0.273797 0.25098,0.410695 0.20535,0.136899 0.45633,0.136899 0.20535,0 0.4107,-0.136899 0.20535,-0.136898 0.25098,-0.410695 0.15971,-0.912656 0.63886,-2.03066 0.47914,-1.14082 1.02674,-2.167558 0.54759,-1.049554 1.07237,-1.825312 0.54759,-0.775757 0.8442,-0.958289 0.25098,-0.159714 0.38788,0.136899 0.15972,0.296613 0.20535,1.14082 0.0684,0.82139 0.0456,1.939394 -0.0228,1.118004 -0.1369,2.418538 -0.0913,1.300535 -0.25098,2.509804 -0.15971,1.186453 -0.38788,2.190375 -0.20534,0.981105 -0.45632,1.483066 -0.11409,0.25098 0,0.456328 0.11408,0.182531 0.43351,0.182531 h 2.35009 q 0.25098,0 0.41069,-0.159715 0.18253,-0.159715 0.22817,-0.410695 0.22816,-0.912656 0.36506,-2.144742 0.15971,-1.232085 0.22816,-2.601069 0.0684,-1.368984 0.0456,-2.806417 0,-1.46025 -0.0913,-2.829234 -0.0684,-1.368984 -0.20535,-2.578253 -0.1369,-1.20927 -0.34224,-2.099109 -0.1369,-0.661676 -0.77576,-0.661676 H 189.982 q -0.52478,0 -1.02674,0.456328 -0.86702,0.821391 -1.61997,1.756863 -0.73012,0.912656 -1.3918,2.327273 -0.11408,0.25098 -0.15971,0.25098 -0.0228,-0.02282 -0.15972,-0.273797 -0.38787,-0.707308 -0.75294,-1.300534 -0.34224,-0.593227 -0.7073,-1.072371 -0.36507,-0.479145 -0.75295,-0.867023 -0.36506,-0.410696 -0.82139,-0.775758 -0.27379,-0.205348 -0.57041,-0.342246 -0.29661,-0.159715 -0.66167,-0.159715 z"
         id="path311" />
    </g>
    <g
       aria-label="O"
       transform="scale(0.92715432,1.0785691)"
       id="text5689"
       style="font-size:22.8164px;line-height:1.25;font-family:HarlequinFLF;-inkscape-font-specification:HarlequinFLF;text-align:center;text-anchor:middle;fill:#992e6a;stroke-width:0.570406">
      <path
         d="m 154.98274,30.229653 q 0,-1.163637 0.36506,-2.464172 0.36506,-1.323351 0.91266,-2.418538 0.57041,-1.095187 1.20927,-1.825312 0.66167,-0.730125 1.23208,-0.730125 0.5476,0 1.20927,0.730125 0.68449,0.707308 1.2549,1.802496 0.59323,1.07237 0.98111,2.372905 0.38788,1.277719 0.38788,2.441355 0,0.775758 -0.18253,1.414617 -0.15972,0.616043 -0.59323,1.072371 -0.43351,0.433511 -1.16364,0.684492 -0.73012,0.25098 -1.82531,0.25098 -1.00392,0 -1.71123,-0.159715 -0.70731,-0.159714 -1.18645,-0.524777 -0.45633,-0.387879 -0.68449,-1.026738 -0.20535,-0.638859 -0.20535,-1.619964 z m 10.60963,0.25098 q 0,-1.163636 -0.25099,-2.350089 -0.22816,-1.209269 -0.7073,-2.372906 -0.45633,-1.163636 -1.11801,-2.236007 -0.66167,-1.072371 -1.48306,-1.96221 -0.79858,-0.867024 -1.61997,-1.323352 -0.79857,-0.479144 -1.6656,-0.479144 -0.79857,0 -1.64278,0.433512 -0.82139,0.410695 -1.68841,1.368984 -0.79857,0.867023 -1.43743,1.985026 -0.61605,1.095188 -1.07237,2.304457 -0.43352,1.186453 -0.66168,2.395722 -0.22816,1.209269 -0.22816,2.304456 0,1.551516 0.34224,2.715152 0.36507,1.14082 1.16364,1.893761 0.79857,0.752941 2.07629,1.14082 1.30054,0.365063 3.14866,0.365063 2.12193,0 3.44528,-0.479145 1.34617,-0.479144 2.09911,-1.323351 0.75294,-0.844207 1.02674,-1.96221 0.2738,-1.118004 0.2738,-2.418539 z"
         id="path314" />
    </g>
    <g
       aria-label="R"
       transform="scale(0.96238073,1.0390898)"
       id="text5693"
       style="font-size:23.6832px;line-height:1.25;font-family:HarlequinFLF;-inkscape-font-specification:HarlequinFLF;text-align:center;text-anchor:middle;fill:#992e6a;stroke-width:0.592078">
      <path
         d="m 132.9625,26.215276 q 0,-0.686813 0.0947,-1.373626 0.0947,-0.710496 0.21315,-1.11311 0.0947,-0.260516 0.35524,-0.378932 0.2842,-0.118416 1.08943,-0.118416 1.20784,0 1.82361,0.402615 0.63944,0.378931 0.63944,1.018377 0,0.615764 -0.49734,1.231527 -0.47367,0.59208 -1.08943,1.089427 -0.61576,0.473664 -1.20784,0.781546 -0.5684,0.307881 -0.73418,0.307881 -0.4263,0 -0.52103,-0.307881 -0.0474,-0.260515 -0.11842,-0.66313 -0.0474,-0.402614 -0.0474,-0.876278 z m 5.11558,2.36832 q 0,-0.189466 0.26051,-0.378931 1.13679,-0.828912 1.65783,-1.870973 0.52103,-1.065744 0.52103,-2.036756 0,-0.710496 -0.26052,-1.349942 -0.23683,-0.639446 -0.7105,-1.11311 -0.44998,-0.473664 -1.13679,-0.73418 -0.68681,-0.284198 -1.56309,-0.284198 h -5.42345 q -0.44998,0 -0.68682,0.260515 -0.21314,0.260515 -0.28419,0.59208 -0.33157,1.610458 -0.47367,3.576163 -0.1421,1.942023 -0.1421,3.955095 0,2.226221 0.16578,4.310343 0.16579,2.060438 0.4263,3.55248 0.0474,0.284198 0.21315,0.473664 0.18947,0.189465 0.54471,0.189465 h 2.17886 q 0.61576,0 0.61576,-0.52103 0,-0.09473 -0.0237,-0.236832 -0.0237,-0.165783 -0.0947,-0.426298 -0.0474,-0.165782 -0.16579,-0.639446 -0.0947,-0.497347 -0.21314,-1.113111 -0.11842,-0.615763 -0.21315,-1.255209 -0.0947,-0.66313 -0.0947,-1.18416 0,-0.307882 0.0237,-0.497348 0.0237,-0.189465 0.071,-0.307881 0.0711,-0.118416 0.18946,-0.213149 0.11842,-0.09473 0.33157,-0.213149 0.47366,-0.213149 1.01837,-0.449981 0.54472,-0.260515 0.94733,-0.44998 0.0711,-0.04737 0.21315,-0.04737 0.16578,0 0.2842,0.118416 0.59208,0.521031 0.97101,1.326259 0.40262,0.781546 0.63945,1.681508 0.26051,0.899961 0.35525,1.870973 0.11841,0.947328 0.16578,1.799923 0.0237,0.757862 0.54471,0.757862 h 2.392 q 0.59208,0 0.59208,-0.615763 0,-0.165782 -0.0237,-0.260515 -0.0237,-0.118416 -0.0711,-0.284199 -0.21315,-1.089427 -0.47366,-2.155171 -0.23683,-1.065744 -0.61577,-2.060438 -0.37893,-0.994695 -0.97101,-1.84729 -0.59208,-0.876278 -1.46836,-1.586774 -0.21314,-0.165783 -0.21314,-0.331565 z"
         id="path317" />
    </g>
    <g
       aria-label="D"
       transform="scale(0.92715432,1.0785691)"
       id="text5697"
       style="font-size:22.8164px;line-height:1.25;font-family:HarlequinFLF;-inkscape-font-specification:HarlequinFLF;text-align:center;text-anchor:middle;fill:#992e6a;stroke-width:0.570406">
      <path
         d="M 120.73898,20.053538 H 118.252 q -0.45633,0 -0.77576,0.228164 -0.29661,0.205348 -0.4107,0.707309 -0.29661,1.483066 -0.43351,3.239928 -0.11408,1.734047 -0.11408,3.536542 0,2.190375 0.15972,4.221035 0.15971,2.030659 0.41069,3.490909 0.0913,0.456328 0.31943,0.661675 0.22816,0.205348 0.75294,0.205348 h 4.85989 q 1.39181,0 2.41854,-0.501961 1.04956,-0.501961 1.73405,-1.368984 0.68449,-0.867023 1.02674,-2.007843 0.34224,-1.163636 0.34224,-2.486988 0,-0.981105 -0.22816,-2.076292 -0.20535,-1.118004 -0.63886,-2.213191 -0.43351,-1.118004 -1.09519,-2.121925 -0.63886,-1.026738 -1.50588,-1.802496 -0.86702,-0.775757 -1.96221,-1.232085 -1.07237,-0.479145 -2.37291,-0.479145 z m -0.9811,3.080214 q 0.0684,-0.387879 0.36506,-0.57041 0.31943,-0.182531 0.73013,-0.182531 0.8442,0 1.64278,0.684492 0.79857,0.684492 1.41461,1.734046 0.61605,1.049555 0.98111,2.28164 0.38788,1.232086 0.38788,2.327273 0,1.026738 -0.31943,1.802496 -0.29661,0.775758 -0.77576,1.300535 -0.47914,0.501961 -1.09519,0.775757 -0.61604,0.250981 -1.23208,0.250981 -0.84421,0 -1.30054,-0.273797 -0.45632,-0.296613 -0.52477,-0.524777 -0.2738,-0.844207 -0.43352,-2.236007 -0.15971,-1.391801 -0.15971,-3.011765 0,-1.095188 0.0684,-2.190375 0.0684,-1.118003 0.25098,-2.167558 z"
         id="path320" />
    </g>
    <g
       aria-label="Y"
       transform="scale(0.92715432,1.0785691)"
       id="text5701"
       style="font-size:22.8164px;line-height:1.25;font-family:HarlequinFLF;-inkscape-font-specification:HarlequinFLF;text-align:center;text-anchor:middle;fill:#992e6a;stroke-width:0.570406">
      <path
         d="m 105.24831,35.249261 q -0.0456,-0.205348 -0.0913,-0.638859 -0.0456,-0.456328 -0.0456,-0.88984 0,-1.026738 0.25098,-1.893761 0.2738,-0.88984 0.68449,-1.619965 0.4107,-0.730124 0.91266,-1.323351 0.52477,-0.593226 1.02674,-1.072371 0.63885,-0.593226 1.20926,-1.368984 0.57041,-0.798574 1.00393,-1.71123 0.45632,-0.935472 0.7073,-1.985027 0.2738,-1.049554 0.2738,-2.190374 0,-0.501961 -0.61604,-0.501961 h -1.96221 q -0.61604,0 -0.61604,0.616043 0,1.300535 -0.36507,2.509804 -0.34224,1.186453 -0.82139,2.099109 -0.47914,0.889839 -0.9811,1.437433 -0.47915,0.524777 -0.73013,0.524777 -0.25098,0 -0.73012,-0.524777 -0.47915,-0.524777 -0.95829,-1.414617 -0.45633,-0.889839 -0.82139,-2.053476 -0.34225,-1.186453 -0.34225,-2.486987 0,-0.31943 -0.15971,-0.501961 -0.1369,-0.205348 -0.50196,-0.205348 h -1.848131 q -0.273797,0 -0.456328,0.159715 -0.159715,0.159715 -0.159715,0.501961 0,1.209269 0.387879,2.53262 0.387878,1.300535 0.981105,2.486988 0.61604,1.163636 1.36898,2.121925 0.75295,0.958289 1.48307,1.437433 0.11408,0.06845 0.11408,0.182532 0,0.09126 -0.0684,0.205347 -0.0456,0.09127 -0.11408,0.250981 -0.22816,0.456328 -0.47914,1.049554 -0.22817,0.593226 -0.43352,1.254902 -0.18253,0.638859 -0.31942,1.323351 -0.11409,0.684492 -0.11409,1.300535 0,0.798574 0.18253,1.14082 0.18254,0.342246 0.59323,0.342246 h 1.93939 q 0.31943,0 0.52478,-0.136898 0.20535,-0.136899 0.20535,-0.365063 0,-0.182531 -0.0456,-0.273797 -0.0228,-0.114082 -0.0684,-0.319429 z"
         id="path323" />
    </g>
    <g
       aria-label="H"
       transform="scale(0.92715432,1.0785691)"
       id="text5705"
       style="font-size:22.8164px;line-height:1.25;font-family:HarlequinFLF;-inkscape-font-specification:HarlequinFLF;text-align:center;text-anchor:middle;fill:#992e6a;stroke-width:0.570406">
      <path
         d="m 83.67286,20.053538 h -1.893761 q -0.410695,0 -0.616043,0.159715 -0.182531,0.136898 -0.273797,0.456328 -0.456328,1.642781 -0.752941,3.650624 -0.296613,1.985027 -0.387879,4.038503 -0.09127,2.03066 0.04563,3.947237 0.136899,1.916578 0.57041,3.354011 0.06845,0.273797 0.250981,0.479144 0.205347,0.205348 0.593226,0.205348 h 2.213191 q 0.935472,0 0.57041,-0.752941 -0.365062,-0.707309 -0.638859,-1.551515 -0.273797,-0.844207 -0.387879,-1.642781 -0.114082,-0.798574 -0.04563,-1.46025 0.09127,-0.661675 0.433512,-0.981105 0.387879,-0.365062 1.14082,-0.616043 0.752941,-0.273797 1.574331,-0.365062 0.821391,-0.114082 1.574332,-0.02282 0.775758,0.09127 1.186453,0.456328 0.342246,0.296614 0.342246,1.026738 0.02282,0.730125 -0.159715,1.642781 -0.159715,0.88984 -0.479144,1.848129 -0.31943,0.935472 -0.661676,1.64278 -0.387879,0.775758 0.456328,0.775758 h 2.350089 q 0.342246,0 0.524777,-0.159715 0.182532,-0.182531 0.296614,-0.57041 0.410695,-1.665597 0.547593,-3.559358 0.159715,-1.916578 0.09127,-3.855972 -0.06845,-1.96221 -0.31943,-3.855972 -0.25098,-1.916577 -0.616043,-3.604991 -0.159714,-0.684492 -0.935472,-0.684492 h -2.236007 q -0.387879,0 -0.524777,0.205348 -0.136899,0.182531 0.02282,0.501961 0.365062,0.82139 0.661676,1.64278 0.296613,0.798574 0.456328,1.528699 0.182531,0.707309 0.228164,1.254902 0.04563,0.524777 -0.09127,0.798574 -0.136898,0.273797 -0.433512,0.228164 -0.456328,-0.06845 -1.026738,-0.02282 -0.547593,0.02282 -1.163636,0.136898 -0.593226,0.09127 -1.163636,0.250981 -0.57041,0.159714 -1.026738,0.319429 -0.410696,0.136899 -0.63886,-0.25098 -0.136898,-0.205348 -0.159715,-0.821391 -0.02282,-0.616042 0.06845,-1.437433 0.09126,-0.844207 0.319429,-1.779679 0.250981,-0.958289 0.63886,-1.848128 0.159714,-0.31943 0,-0.501961 -0.136899,-0.205348 -0.524778,-0.205348 z"
         id="path326" />
    </g>
    <circle
       style="opacity:1;fill:#b4d333;fill-opacity:1;stroke:#000000;stroke-width:0.670326;stroke-opacity:0"
       id="path7238"
       cx="228.56725"
       cy="54.633484"
       r="3.6141996" />
    <circle
       style="opacity:1;fill:#b4d333;fill-opacity:1;stroke:#000000;stroke-width:0.670326;stroke-opacity:0"
       id="circle7284"
       cx="239.84999"
       cy="54.633484"
       r="3.6141996" />
    <circle
       style="opacity:1;fill:#b4d333;fill-opacity:1;stroke:#000000;stroke-width:0.670326;stroke-opacity:0"
       id="circle7286"
       cx="251.16182"
       cy="54.633484"
       r="3.6141996" />
    <g
       aria-label="s"
       id="text7595"
       style="font-size:19.7118px;font-family:'Rai Text 1983 Lowercase';-inkscape-font-specification:'Rai Text 1983 Lowercase';fill:#992e6a;fill-opacity:1;stroke-width:0.492792"
       transform="matrix(0.65798876,0,0,0.65798876,25.521212,-102.08925)">
      <path
         d="m 289.86558,238.88127 c -1.4694,0 -2.61476,-0.25025 -3.43609,-0.75074 -0.81491,-0.50691 -1.23519,-1.25766 -1.26086,-2.25223 -0.0257,-0.99457 0.37537,-2.05182 1.20311,-2.59723 0.83416,-0.55183 1.96669,-0.82775 3.39759,-0.82775 h 3.68891 c 0.61599,0 0.92399,0.32404 0.92399,0.97212 v 0.35729 c 0,0.616 -0.32725,0.92399 -0.98174,0.92399 h -3.53491 c -0.69941,0 -1.12612,0.0417 -1.28011,0.12512 -0.5482,0.3165 -0.39519,0.8919 -0.12513,1.16196 0.0744,0.0744 0.13594,0.12606 0.22138,0.154 0.67086,0.10211 0.80643,0.0309 1.38598,0.0289 1.4694,0 2.63081,0.26308 3.48422,0.78925 0.52556,0.32007 1.07699,1.29615 1.07699,2.32922 0,1.02666 -0.57854,2.08894 -1.05774,2.42548 -0.84058,0.59033 -1.97632,0.88549 -3.40722,0.88549 h -4.04246 c -0.61599,0 -0.92399,-0.32404 -0.92399,-0.97212 v -0.42931 c 0,-0.61599 0.32725,-0.92399 0.98174,-0.92399 h 3.88846 c 0.69941,0 1.03582,0.0457 1.28974,-0.16345 0.30544,-0.25173 0.19346,-0.79682 0,-0.97592 -0.23664,-0.21906 -0.59033,-0.26005 -1.28974,-0.26005 z"
         id="path7856"
         style="fill:#992e6a;fill-opacity:1" />
    </g>
    <g
       aria-label="o"
       id="text7607"
       style="font-size:12.9701px;line-height:1.25;font-family:'Rai Text 1983 Lowercase';-inkscape-font-specification:'Rai Text 1983 Lowercase';fill:#992e6a;stroke-width:0.324252">
      <path
         d="m 193.71615,51.019798 q 1.34894,0 2.30524,0.956292 0.95629,0.956291 0.95629,2.305232 0,1.348942 -0.95629,2.305233 -0.9563,0.956292 -2.30524,0.956292 -1.34894,0 -2.30523,-0.956292 -0.95629,-0.956291 -0.95629,-2.305233 0,-1.348941 0.95629,-2.305232 0.95629,-0.956292 2.30523,-0.956292 z m 0,1.652928 q -0.6523,0 -1.12095,0.474979 -0.46231,0.468646 -0.46231,1.133617 0,0.664971 0.46231,1.139951 0.46865,0.468646 1.12095,0.468646 0.65864,0 1.12095,-0.468646 0.46232,-0.47498 0.46232,-1.139951 0,-0.664971 -0.46232,-1.133617 -0.46231,-0.474979 -1.12095,-0.474979 z"
         id="path329" />
    </g>
    <g
       aria-label="i"
       id="text7611"
       style="font-size:12.9701px;line-height:1.25;font-family:'Rai Text 1983 Lowercase';-inkscape-font-specification:'Rai Text 1983 Lowercase';fill:#992e6a;stroke-width:0.324252">
      <path
         d="m 187.33692,51.051463 h 0.67131 q 0.60164,0 0.60164,0.601641 v 5.243771 q 0,0.645972 -0.60798,0.645972 h -0.64597 q -0.63964,0 -0.63964,-0.607974 v -5.281769 q 0,-0.601641 0.62064,-0.601641 z m 0.31032,-2.248235 q 0.37365,0 0.63331,0.265989 0.25965,0.259655 0.25965,0.626972 0,0.373651 -0.25965,0.633306 -0.25966,0.259655 -0.63331,0.259655 -0.36731,0 -0.6333,-0.259655 -0.25966,-0.259655 -0.25966,-0.633306 0,-0.367317 0.25966,-0.626972 0.26599,-0.265989 0.6333,-0.265989 z"
         id="path332" />
    </g>
    <g
       aria-label="c"
       id="text7615"
       style="font-size:12.9701px;line-height:1.25;font-family:'Rai Text 1983 Lowercase';-inkscape-font-specification:'Rai Text 1983 Lowercase';fill:#992e6a;stroke-width:0.324252">
      <path
         d="m 184.6936,51.051463 q 0.60164,0 0.60164,0.62064 v 0.671304 q 0,0.60164 -0.60164,0.60164 h -1.82392 q -0.98795,0 -1.43127,0.272322 -0.43698,0.272321 -0.56364,0.937292 -0.12666,0.664971 0.43698,1.082953 0.56998,0.411649 1.55793,0.411649 h 1.82392 q 0.60164,0 0.60164,0.620639 v 0.671304 q 0,0.601641 -0.60164,0.601641 h -1.82392 q -1.78592,0 -2.88154,-0.924627 -1.09562,-0.930959 -1.07662,-2.419227 0.019,-1.488269 1.09562,-2.317899 1.07662,-0.829631 2.86254,-0.829631 z"
         id="path335" />
    </g>
    <g
       aria-label="u"
       id="text7619"
       style="font-size:12.9701px;line-height:1.25;font-family:'Rai Text 1983 Lowercase';-inkscape-font-specification:'Rai Text 1983 Lowercase';fill:#992e6a;stroke-width:0.324252">
      <path
         d="m 172.93636,55.142618 q 0.63331,0 0.63331,-0.60164 V 51.66577 q 0,-0.607974 -0.6523,-0.607974 h -0.65864 q -0.62698,0 -0.62698,0.645972 v 2.83721 q 0,0.60164 0.62064,0.60164 z m 1.36161,0.525644 q -0.20899,-0.08866 -0.38631,-0.259655 -0.32932,-0.335652 -0.34832,-0.956292 h -1.93159 q 0.0443,1.266611 0.8803,2.153239 0.88029,0.93096 2.40023,0.93096 l 0.36098,0.01267 q 0.076,0 0.13933,-0.01267 h 0.006 l 2.2609,0.01267 q 0.48132,0 0.48132,-0.500312 v -5.319767 q 0,-0.639639 -0.62698,-0.639639 h -0.97529 q -0.32298,0 -0.32298,0.424315 l 0.0127,4.243148 h -0.97529 q -0.62697,0 -0.97529,-0.08866 z"
         id="path338" />
    </g>
    <g
       aria-label="l"
       id="text7623"
       style="font-size:12.9701px;line-height:1.25;font-family:'Rai Text 1983 Lowercase';-inkscape-font-specification:'Rai Text 1983 Lowercase';fill:#992e6a;stroke-width:0.324252">
      <path
         d="m 169.08521,48.898224 h 0.6713 q 0.60164,0 0.60164,0.60164 v 7.397011 q 0,0.645972 -0.60797,0.645972 h -0.64597 q -0.63964,0 -0.63964,-0.607974 v -7.435009 q 0,-0.60164 0.62064,-0.60164 z"
         id="path341" />
    </g>
    <g
       aria-label="o"
       id="text7627"
       style="font-size:12.9701px;line-height:1.25;font-family:'Rai Text 1983 Lowercase';-inkscape-font-specification:'Rai Text 1983 Lowercase';fill:#992e6a;stroke-width:0.324252">
      <path
         d="m 163.27691,51.019798 q 1.34895,0 2.30524,0.956292 0.95629,0.956291 0.95629,2.305232 0,1.348942 -0.95629,2.305233 -0.95629,0.956292 -2.30524,0.956292 -1.34894,0 -2.30523,-0.956292 -0.95629,-0.956291 -0.95629,-2.305233 0,-1.348941 0.95629,-2.305232 0.95629,-0.956292 2.30523,-0.956292 z m 0,1.652928 q -0.6523,0 -1.12095,0.474979 -0.46231,0.468646 -0.46231,1.133617 0,0.664971 0.46231,1.139951 0.46865,0.468646 1.12095,0.468646 0.65864,0 1.12096,-0.468646 0.46231,-0.47498 0.46231,-1.139951 0,-0.664971 -0.46231,-1.133617 -0.46232,-0.474979 -1.12096,-0.474979 z"
         id="path344" />
    </g>
    <g
       aria-label="S"
       transform="scale(1.0605626,0.94289578)"
       id="text7631"
       style="font-size:13.7557px;line-height:1.25;font-family:'Rai Text 1983 Lowercase';-inkscape-font-specification:'Rai Text 1983 Lowercase';fill:#992e6a;stroke-width:0.343889">
      <path
         d="m 144.32598,57.353801 q -1.53811,0 -2.43143,-0.711965 -0.89331,-0.718681 -0.89331,-1.967978 0,-1.175414 0.87988,-1.994845 0.87988,-0.819432 2.37769,-0.819432 h 4.43299 q 0.6448,0 0.6448,0.678382 v 0.685098 q 0,0.644799 -0.6851,0.644799 h -4.32552 q -0.73211,0 -1.0075,0.241799 -0.26866,0.235083 -0.26866,0.557482 0,0.322399 0.26866,0.564199 0.27539,0.235083 1.0075,0.235083 h 1.75305 q 1.53811,0 2.43142,0.718681 0.89332,0.711965 0.89332,2.028429 0,1.175413 -0.87988,1.994845 -0.87988,0.819431 -2.3777,0.819431 h -4.43299 q -0.6448,0 -0.6448,-0.678382 v -0.685098 q 0,-0.644798 0.6851,-0.644798 h 4.32553 q 0.73211,0 1.00078,-0.235083 0.27538,-0.2418 0.27538,-0.564199 0,-0.389565 -0.27538,-0.624648 -0.26867,-0.2418 -1.00078,-0.2418 z"
         id="path347" />
    </g>
    <g
       aria-label="e"
       id="text7639"
       style="font-size:19.7118px;font-family:'Rai Text 1983 Lowercase';-inkscape-font-specification:'Rai Text 1983 Lowercase';fill:#992e6a;fill-opacity:1;stroke-width:0.492792"
       transform="matrix(0.65798876,0,0,0.65798876,25.521212,-102.08925)">
      <path
         id="path7850"
         d="m 177.84375,232.51541 c -0.91709,2.1e-4 -1.90105,0.61673 -2.53125,1.33225 -0.87839,0.99731 -1.33234,1.96659 -1.39649,3.73437 -0.0642,1.76778 0.2125,2.82693 1.0879,3.82031 0.65991,0.74885 1.32299,1.17578 2.7539,1.17578 h 3.49745 c 0.616,0 0.92383,-0.32458 0.92383,-0.97265 v -0.3418 c 0,-0.61599 -0.32597,-0.92383 -0.98047,-0.92383 h -3.3451 c -0.69941,0 -0.87142,-0.20092 -1.02735,-0.3457 -0.28617,-0.42693 -0.38678,-1.07847 -0.33008,-1.42382 h 1.54883 l 3.17467,0.003 c 0.66293,6.3e-4 1.02051,-0.20264 1.01942,-0.76976 l -6.8e-4,-0.35282 c -0.001,-0.59976 -0.40171,-0.7599 -0.97428,-0.75982 l -3.26053,4.8e-4 h -1.5076 c -0.0583,-0.71238 0.17993,-1.33773 0.3983,-1.67326 0.0752,-0.11547 0.53223,-0.60693 1.00221,-0.60693 l 3.09181,-0.003 c 0.51877,-6.6e-4 1.37232,-0.13935 1.37103,-0.73103 l -0.001,-0.45925 c -0.001,-0.60847 -0.84312,-0.70338 -1.35074,-0.70327 z"
         style="fill:#992e6a;fill-opacity:1" />
    </g>
    <g
       aria-label="d"
       id="text7643"
       style="font-size:19.7118px;font-family:'Rai Text 1983 Lowercase';-inkscape-font-specification:'Rai Text 1983 Lowercase';fill:#992e6a;fill-opacity:1;stroke-width:0.492792"
       transform="matrix(0.65798876,0,0,0.65798876,25.521212,-102.08925)">
      <path
         d="m 168.19262,234.72418 c 0,0 -1.68869,-0.14337 -2.44472,0.16573 -0.42903,0.1754 -0.9956,0.63072 -1.29936,1.11352 -0.28825,0.45814 -0.41888,0.87587 -0.41888,1.56886 0,0.69299 0.30067,1.70327 0.65358,2.0626 0.35933,0.35291 0.65399,0.68394 1.3534,0.81227 0.70583,0.12833 1.42449,-0.16041 2.15598,-0.86624 z m 0,-2.08588 v -2.48681 c 0,-0.48767 0.21817,-0.7315 0.6545,-0.7315 h 1.52073 c 0.48766,0 0.73149,0.25346 0.73149,0.76037 v 11.40551 c 0,0.64808 -0.31762,0.97212 -0.95286,0.97212 h -1.47261 c -0.33367,0 -0.48767,-0.22458 -0.462,-0.67375 -0.55183,0.44917 -1.41165,0.67375 -2.57947,0.67375 -1.03988,0 -2.25733,-0.74813 -2.88611,-1.31862 -0.96891,-0.87908 -1.27658,-2.07256 -1.27658,-3.58046 0,-1.37315 0.26917,-2.53135 1.16108,-3.47459 0.89191,-0.94966 1.79849,-1.54602 3.33848,-1.54602 z"
         id="path7874"
         style="fill:#992e6a;fill-opacity:1" />
    </g>
    <g
       aria-label="a"
       id="text7651"
       style="font-size:12.9701px;line-height:1.25;font-family:'Rai Text 1983 Lowercase';-inkscape-font-specification:'Rai Text 1983 Lowercase';fill:#992e6a;stroke-width:0.324252">
      <path
         d="m 124.6518,55.851921 q 0.6333,0 0.86763,-0.158327 0.24065,-0.158326 0.24065,-0.367317 v -0.569975 h -1.24128 q -0.6333,0 -0.87396,0.158326 -0.23432,0.158327 -0.23432,0.411649 0,0.208991 0.23432,0.367317 0.24066,0.158327 0.87396,0.158327 z m 1.01962,-2.564889 q -0.0443,-0.06333 -0.10766,-0.120328 -0.25966,-0.221657 -0.94996,-0.221657 h -2.68522 q -0.64597,0 -0.64597,-0.607973 v -0.645972 q 0,-0.639639 0.60798,-0.639639 h 2.78654 q 1.41227,0 2.2419,0.772633 0.82963,0.772633 0.82963,1.880918 v 3.198194 q 0,0.639639 -0.6713,0.639639 h -0.56364 q -0.39899,0 -0.56998,-0.208991 -0.58264,0.170992 -1.32361,0.170992 h -0.38631 q -1.41228,0 -2.24191,-0.620639 -0.82963,-0.62064 -0.82963,-1.513601 0,-0.943625 0.82963,-1.5136 0.82963,-0.569976 2.14691,-0.569976 z"
         id="path350" />
    </g>
    <g
       aria-label="n"
       id="text7655"
       style="font-size:12.9701px;line-height:1.25;font-family:'Rai Text 1983 Lowercase';-inkscape-font-specification:'Rai Text 1983 Lowercase';fill:#992e6a;stroke-width:0.324252">
      <path
         d="m 118.5356,53.458025 q -0.63331,0 -0.63331,0.60164 v 2.875208 q 0,0.607974 0.65231,0.607974 h 0.65863 q 0.62698,0 0.62698,-0.645972 v -2.83721 q 0,-0.60164 -0.62064,-0.60164 z m -1.36161,-0.525644 q 0.20899,0.08866 0.38632,0.259656 0.32932,0.335652 0.34832,0.956291 h 1.93158 q -0.0443,-1.266611 -0.8803,-2.153239 -0.88029,-0.930959 -2.40023,-0.930959 l -0.36098,-0.01267 q -0.076,0 -0.13933,0.01267 h -0.006 l -2.2609,-0.01267 q -0.48131,0 -0.48131,0.500312 v 5.319768 q 0,0.639638 0.62697,0.639638 h 0.97529 q 0.32299,0 0.32299,-0.424314 l -0.0127,-4.243148 h 0.97529 q 0.62697,0 0.97529,0.08866 z"
         id="path353" />
    </g>
    <g
       aria-label="o"
       id="text7659"
       style="font-size:12.9701px;line-height:1.25;font-family:'Rai Text 1983 Lowercase';-inkscape-font-specification:'Rai Text 1983 Lowercase';fill:#992e6a;stroke-width:0.324252">
      <path
         d="m 108.54658,51.019798 q 1.34894,0 2.30523,0.956292 0.95629,0.956291 0.95629,2.305232 0,1.348942 -0.95629,2.305233 -0.95629,0.956292 -2.30523,0.956292 -1.34895,0 -2.30524,-0.956292 -0.95629,-0.956291 -0.95629,-2.305233 0,-1.348941 0.95629,-2.305232 0.95629,-0.956292 2.30524,-0.956292 z m 0,1.652928 q -0.65231,0 -1.12096,0.474979 -0.46231,0.468646 -0.46231,1.133617 0,0.664971 0.46231,1.139951 0.46865,0.468646 1.12096,0.468646 0.65863,0 1.12095,-0.468646 0.46231,-0.47498 0.46231,-1.139951 0,-0.664971 -0.46231,-1.133617 -0.46232,-0.474979 -1.12095,-0.474979 z"
         id="path356" />
    </g>
    <g
       aria-label="Z"
       id="text7663"
       style="font-size:19.7118px;font-family:'Rai Text 1983 Lowercase';-inkscape-font-specification:'Rai Text 1983 Lowercase';fill:#992e6a;fill-opacity:1;stroke-width:0.492792"
       transform="matrix(0.65798876,0,0,0.65798876,25.521212,-102.08925)">
      <path
         d="m 113.53061,231.92441 h -7.3348 c -0.65449,0 -0.98174,-0.308 -0.98174,-0.92399 v -0.70082 c 0,-0.64807 0.308,-0.97211 0.92399,-0.97211 h 11.29964 c 0.60957,0 0.91436,0.31441 0.91436,0.94324 v 1.14211 c 0,0.59033 -0.29195,1.11007 -0.87586,1.55924 l -6.85541,7.16243 h 6.81691 c 0.60957,0 0.91436,0.31441 0.91436,0.94324 v 0.61399 c 0,0.60958 -0.30479,0.91437 -0.91436,0.91437 h -11.24189 c -0.65449,0 -0.98174,-0.308 -0.98174,-0.92399 v -0.59298 c 0,-0.5775 0.36575,-1.53879 1.09724,-2.07136 z"
         id="path7712"
         style="fill:#992e6a;fill-opacity:1" />
    </g>
    <g
       aria-label="e"
       id="g7854"
       style="font-size:19.7118px;font-family:'Rai Text 1983 Lowercase';-inkscape-font-specification:'Rai Text 1983 Lowercase';fill:#992e6a;fill-opacity:1;stroke-width:0.492792"
       transform="matrix(0.65798876,0,0,0.65798876,25.521212,-102.08925)">
      <path
         id="path7852"
         d="m 278.84375,232.51541 c -0.91709,2.1e-4 -1.90105,0.61673 -2.53125,1.33225 -0.87839,0.99731 -1.33234,1.96659 -1.39649,3.73437 -0.0642,1.76778 0.2125,2.82693 1.0879,3.82031 0.65991,0.74885 1.32299,1.17578 2.7539,1.17578 h 3.49745 c 0.616,0 0.92383,-0.32458 0.92383,-0.97265 v -0.3418 c 0,-0.61599 -0.32597,-0.92383 -0.98047,-0.92383 h -3.3451 c -0.69941,0 -0.87142,-0.20092 -1.02735,-0.3457 -0.28617,-0.42693 -0.38678,-1.07847 -0.33008,-1.42382 h 1.54883 l 3.17467,0.003 c 0.66293,6.3e-4 1.02051,-0.20264 1.01942,-0.76976 l -6.8e-4,-0.35282 c -0.001,-0.59976 -0.40171,-0.7599 -0.97428,-0.75982 l -3.26053,4.8e-4 h -1.5076 c -0.0583,-0.71238 0.17993,-1.33773 0.3983,-1.67326 0.0752,-0.11547 0.53223,-0.60693 1.00221,-0.60693 l 3.09181,-0.003 c 0.51877,-6.6e-4 1.37232,-0.13935 1.37103,-0.73103 l -10e-4,-0.45925 c -10e-4,-0.60847 -0.84312,-0.70338 -1.35074,-0.70327 z"
         style="fill:#992e6a;fill-opacity:1" />
    </g>
    <g
       aria-label="n"
       id="text7872"
       style="font-size:12.9701px;line-height:1.25;font-family:'Rai Text 1983 Lowercase';-inkscape-font-specification:'Rai Text 1983 Lowercase';fill:#992e6a;stroke-width:0.324252">
      <path
         d="m 203.56337,53.458025 q -0.63331,0 -0.63331,0.60164 v 2.875208 q 0,0.607974 0.65231,0.607974 h 0.65864 q 0.62697,0 0.62697,-0.645972 v -2.83721 q 0,-0.60164 -0.62064,-0.60164 z m -1.36161,-0.525644 q 0.20899,0.08866 0.38632,0.259656 0.32932,0.335652 0.34832,0.956291 h 1.93158 q -0.0443,-1.266611 -0.8803,-2.153239 -0.88029,-0.930959 -2.40022,-0.930959 l -0.36099,-0.01267 q -0.076,0 -0.13933,0.01267 h -0.006 l -2.2609,-0.01267 q -0.48131,0 -0.48131,0.500312 v 5.319768 q 0,0.639638 0.62697,0.639638 h 0.97529 q 0.32299,0 0.32299,-0.424314 l -0.0127,-4.243148 h 0.97529 q 0.62697,0 0.97529,0.08866 z"
         id="path293" />
    </g>
  </g>
</svg>
